ExploreSerif_Black.ufo
<glyph name="comma" format="2">
  <advance width="180"/>
  <unicode hex="002C"/>
  <outline>
    <contour>
      <point x="74" y="0" type="line"/>
      <point x="16" y="11" type="line"/>
      <point x="34" y="129" type="line"/>
      <point x="164" y="104" type="line"/>
      <point x="115" y="-143" type="line"/>
      <point x="50" y="-143" type="line"/>
    </contour>
  </outline>
</glyph>
<glyph name="one" format="2">
  <advance width="595"/>
  <unicode hex="0031"/>
  <outline>
    <contour>
      <point x="222" y="605" type="curve"/>
      <point x="222" y="64" type="line"/>
      <point x="57" y="64" type="line"/>
      <point x="57" y="0" type="line"/>
      <point x="551" y="0" type="line"/>
      <point x="551" y="64" type="line"/>
      <point x="414" y="64" type="line"/>
      <point x="414" y="708" type="line"/>
      <point x="280" y="708" type="line"/>
      <point x="224" y="671"/>
      <point x="138" y="629"/>
      <point x="71" y="607" type="curve"/>
      <point x="71" y="495" type="line"/>
      <point x="135" y="511"/>
      <point x="194" y="563"/>
    </contour>
  </outline>
</glyph>
<glyph name="two" format="2">
  <advance width="595"/>
  <unicode hex="0032"/>
  <outline>
    <contour>
      <point x="49" y="574" type="line" smooth="yes"/>
      <point x="57" y="520"/>
      <point x="82" y="502"/>
      <point x="133" y="498" type="curve" smooth="yes"/>
      <point x="169" y="495" type="line"/>
      <point x="176" y="630" type="line"/>
      <point x="188" y="642"/>
      <point x="202" y="652"/>
      <point x="243" y="652" type="curve" smooth="yes"/>
      <point x="327" y="652"/>
      <point x="358" y="575"/>
      <point x="358" y="499" type="curve" smooth="yes"/>
      <point x="358" y="396"/>
      <point x="287" y="314"/>
      <point x="224" y="241" type="curve" smooth="yes"/>
      <point x="59" y="52" type="line"/>
      <point x="59" y="0" type="line"/>
      <point x="542" y="0" type="line"/>
      <point x="542" y="126" type="line"/>
      <point x="221" y="126" type="line"/>
      <point x="325" y="230" type="line" smooth="yes"/>
      <point x="439" y="344"/>
      <point x="518" y="415"/>
      <point x="518" y="528" type="curve" smooth="yes"/>
      <point x="518" y="652"/>
      <point x="410" y="716"/>
      <point x="264" y="716" type="curve" smooth="yes"/>
      <point x="189" y="716"/>
      <point x="98" y="694"/>
      <point x="40" y="634" type="curve"/>
    </contour>
  </outline>
</glyph>
<glyph name="three" format="2">
  <advance width="595"/>
  <unicode hex="0033"/>
  <outline>
    <contour>
      <point x="61" y="708" type="line"/>
      <point x="517" y="708" type="line"/>
      <point x="517" y="599" type="line"/>
      <point x="350" y="410" type="line"/>
      <point x="495" y="405"/>
      <point x="569" y="346"/>
      <point x="569" y="207" type="curve" smooth="yes"/>
      <point x="569" y="78"/>
      <point x="457" y="-8"/>
      <point x="281" y="-8" type="curve" smooth="yes"/>
      <point x="146" y="-8"/>
      <point x="91" y="25"/>
      <point x="30" y="70" type="curve"/>
      <point x="30" y="93" type="line"/>
      <point x="30" y="148"/>
      <point x="46" y="200"/>
      <point x="108" y="214" type="curve" smooth="yes"/>
      <point x="139" y="221" type="line"/>
      <point x="182" y="77" type="line"/>
      <point x="198" y="65"/>
      <point x="206" y="56"/>
      <point x="248" y="56" type="curve" smooth="yes"/>
      <point x="332" y="56"/>
      <point x="377" y="103"/>
      <point x="377" y="206" type="curve" smooth="yes"/>
      <point x="377" y="300"/>
      <point x="316" y="346"/>
      <point x="256" y="346" type="curve" smooth="yes"/>
      <point x="250" y="346" type="line"/>
      <point x="250" y="408" type="line"/>
      <point x="394" y="568" type="line"/>
      <point x="115" y="568" type="line"/>
      <point x="115" y="472" type="line"/>
      <point x="61" y="472" type="line"/>
    </contour>
  </outline>
</glyph>
<glyph name="four" format="2">
  <advance width="595"/>
  <unicode hex="0034"/>
  <outline>
    <contour>
      <point x="236" y="708" type="line"/>
      <point x="439" y="708" type="line"/>
      <point x="167" y="231" type="line"/>
      <point x="313" y="231" type="line"/>
      <point x="313" y="417" type="line"/>
      <point x="505" y="417" type="line"/>
      <point x="505" y="231" type="line"/>
      <point x="579" y="231" type="line"/>
      <point x="579" y="167" type="line"/>
      <point x="505" y="167" type="line"/>
      <point x="505" y="0" type="line"/>
      <point x="313" y="0" type="line"/>
      <point x="313" y="167" type="line"/>
      <point x="26" y="167" type="line"/>
      <point x="26" y="247" type="line"/>
    </contour>
  </outline>
</glyph>
<glyph name="five" format="2">
  <advance width="595"/>
  <unicode hex="0035"/>
  <outline>
    <contour>
      <point x="80" y="708" type="line"/>
      <point x="508" y="708" type="line"/>
      <point x="504" y="548" type="line"/>
      <point x="174" y="548" type="line"/>
      <point x="163" y="393" type="line"/>
      <point x="208" y="429"/>
      <point x="261" y="447"/>
      <point x="322" y="447" type="curve" smooth="yes"/>
      <point x="456" y="447"/>
      <point x="552" y="371"/>
      <point x="552" y="235" type="curve" smooth="yes"/>
      <point x="552" y="97"/>
      <point x="464" y="-8"/>
      <point x="258" y="-8" type="curve" smooth="yes"/>
      <point x="166" y="-8"/>
      <point x="99" y="10"/>
      <point x="36" y="42" type="curve"/>
      <point x="45" y="158" type="line"/>
      <point x="96" y="123"/>
      <point x="156" y="96"/>
      <point x="229" y="96" type="curve" smooth="yes"/>
      <point x="303" y="96"/>
      <point x="359" y="145"/>
      <point x="359" y="228" type="curve" smooth="yes"/>
      <point x="359" y="296"/>
      <point x="321" y="348"/>
      <point x="257" y="348" type="curve" smooth="yes"/>
      <point x="210" y="348"/>
      <point x="194" y="330"/>
      <point x="179" y="313" type="curve"/>
      <point x="58" y="313" type="line"/>
    </contour>
  </outline>
</glyph>
<glyph name="seven" format="2">
  <advance width="595"/>
  <unicode hex="0037"/>
  <outline>
    <contour>
      <point x="52" y="708" type="line"/>
      <point x="555" y="708" type="line"/>
      <point x="555" y="558" type="line"/>
      <point x="342" y="0" type="line"/>
      <point x="105" y="0" type="line"/>
      <point x="443" y="548" type="line"/>
      <point x="35" y="548" type="line"/>
    </contour>
  </outline>
</glyph>
<glyph name="nine" format="2">
  <advance width="595"/>
  <unicode hex="0039"/>
  <outline>
    <contour>
      <point x="294" y="716" type="curve" smooth="yes"/>
      <point x="448" y="716"/>
      <point x="571" y="628"/>
      <point x="571" y="427" type="curve" smooth="yes"/>
      <point x="571" y="147"/>
      <point x="341" y="17"/>
      <point x="145" y="-11" type="curve"/>
      <point x="131" y="64" type="line"/>
      <point x="293" y="102"/>
      <point x="388" y="202"/>
      <point x="383" y="344" type="curve"/>
      <point x="363" y="291"/>
      <point x="312" y="258"/>
      <point x="225" y="258" type="curve" smooth="yes"/>
      <point x="87" y="258"/>
      <point x="24" y="345"/>
      <point x="24" y="482" type="curve" smooth="yes"/>
      <point x="24" y="627"/>
      <point x="150" y="716"/>
    </contour>
    <contour>
      <point x="294" y="624" type="curve" smooth="yes"/>
      <point x="236" y="624"/>
      <point x="216" y="570"/>
      <point x="216" y="482" type="curve" smooth="yes"/>
      <point x="216" y="386"/>
      <point x="254" y="351"/>
      <point x="294" y="351" type="curve" smooth="yes"/>
      <point x="343" y="351"/>
      <point x="379" y="394"/>
      <point x="379" y="482" type="curve" smooth="yes"/>
      <point x="379" y="576"/>
      <point x="357" y="624"/>
    </contour>
  </outline>
</glyph>
<glyph name="A" format="2">
  <advance width="722"/>
  <unicode hex="0041"/>
  <anchor x="337" y="876" name="AccentCenter"/>
  <outline>
    <contour>
      <point x="449" y="708" type="line"/>
      <point x="673" y="96" type="line"/>
      <point x="710" y="96" type="line"/>
      <point x="710" y="0" type="line"/>
      <point x="454" y="0" type="line"/>
      <point x="454" y="96" type="line"/>
      <point x="490" y="96" type="line"/>
      <point x="467" y="168" type="line"/>
      <point x="182" y="168" type="line"/>
      <point x="155" y="96" type="line"/>
      <point x="206" y="96" type="line"/>
      <point x="206" y="0" type="line"/>
      <point x="12" y="0" type="line"/>
      <point x="12" y="96" type="line"/>
      <point x="48" y="96" type="line"/>
      <point x="246" y="639" type="line"/>
      <point x="246" y="708" type="line"/>
    </contour>
    <contour>
      <point x="328" y="598" type="line"/>
      <point x="205" y="260" type="line"/>
      <point x="443" y="260" type="line"/>
      <point x="334" y="598" type="line"/>
    </contour>
  </outline>
</glyph>
<glyph name="C" format="2">
  <advance width="677"/>
  <unicode hex="0043"/>
  <outline>
    <contour>
      <point x="389" y="716" type="curve" smooth="yes"/>
      <point x="478" y="716"/>
      <point x="575" y="688"/>
      <point x="636" y="637" type="curve"/>
      <point x="636" y="475" type="line"/>
      <point x="492" y="475" type="line"/>
      <point x="482" y="610" type="line"/>
      <point x="467" y="616"/>
      <point x="442" y="621"/>
      <point x="421" y="621" type="curve"/>
      <point x="311" y="621"/>
      <point x="224" y="586"/>
      <point x="224" y="352" type="curve" smooth="yes"/>
      <point x="224" y="169"/>
      <point x="304" y="93"/>
      <point x="440" y="93" type="curve" smooth="yes"/>
      <point x="515" y="93"/>
      <point x="567" y="119"/>
      <point x="616" y="149" type="curve"/>
      <point x="647" y="55" type="line"/>
      <point x="588" y="26"/>
      <point x="504" y="-8"/>
      <point x="386" y="-8" type="curve" smooth="yes"/>
      <point x="165" y="-8"/>
      <point x="32" y="125"/>
      <point x="32" y="352" type="curve" smooth="yes"/>
      <point x="32" y="608"/>
      <point x="204" y="716"/>
    </contour>
  </outline>
</glyph>
<glyph name="G" format="2">
  <advance width="717"/>
  <unicode hex="0047"/>
  <outline>
    <contour>
      <point x="415" y="716" type="curve" smooth="yes"/>
      <point x="500" y="716"/>
      <point x="564" y="699"/>
      <point x="636" y="657" type="curve"/>
      <point x="636" y="495" type="line"/>
      <point x="492" y="495" type="line"/>
      <point x="492" y="609" type="line"/>
      <point x="479" y="612"/>
      <point x="464" y="614"/>
      <point x="445" y="614" type="curve" smooth="yes"/>
      <point x="309" y="614"/>
      <point x="224" y="519"/>
      <point x="224" y="352" type="curve" smooth="yes"/>
      <point x="224" y="146"/>
      <point x="304" y="88"/>
      <point x="424" y="88" type="curve"/>
      <point x="434" y="88"/>
      <point x="442" y="90"/>
      <point x="449" y="92" type="curve"/>
      <point x="449" y="306" type="line"/>
      <point x="318" y="306" type="line"/>
      <point x="318" y="406" type="line"/>
      <point x="693" y="406" type="line"/>
      <point x="688" y="306" type="line"/>
      <point x="636" y="306" type="line"/>
      <point x="636" y="14" type="line"/>
      <point x="581" y="4"/>
      <point x="521" y="-8"/>
      <point x="441" y="-8" type="curve" smooth="yes"/>
      <point x="200" y="-8"/>
      <point x="32" y="91"/>
      <point x="32" y="352" type="curve" smooth="yes"/>
      <point x="32" y="571"/>
      <point x="183" y="716"/>
    </contour>
  </outline>
</glyph>
<glyph name="H" format="2">
  <advance width="776"/>
  <unicode hex="0048"/>
  <outline>
    <contour>
      <point x="360" y="708" type="line"/>
      <point x="360" y="644" type="line"/>
      <point x="286" y="644" type="line"/>
      <point x="286" y="411" type="line"/>
      <point x="490" y="411" type="line"/>
      <point x="490" y="644" type="line"/>
      <point x="416" y="644" type="line"/>
      <point x="416" y="708" type="line"/>
      <point x="756" y="708" type="line"/>
      <point x="756" y="644" type="line"/>
      <point x="682" y="644" type="line"/>
      <point x="682" y="64" type="line"/>
      <point x="756" y="64" type="line"/>
      <point x="756" y="0" type="line"/>
      <point x="416" y="0" type="line"/>
      <point x="416" y="64" type="line"/>
      <point x="490" y="64" type="line"/>
      <point x="490" y="347" type="line"/>
      <point x="286" y="347" type="line"/>
      <point x="286" y="64" type="line"/>
      <point x="360" y="64" type="line"/>
      <point x="360" y="0" type="line"/>
      <point x="20" y="0" type="line"/>
      <point x="20" y="64" type="line"/>
      <point x="94" y="64" type="line"/>
      <point x="94" y="644" type="line"/>
      <point x="20" y="644" type="line"/>
      <point x="20" y="708" type="line"/>
    </contour>
  </outline>
</glyph>
<glyph name="I" format="2">
  <advance width="380"/>
  <unicode hex="0049"/>
  <anchor x="186" y="880" name="AccentCenter"/>
  <outline>
    <contour>
      <point x="20" y="708" type="line"/>
      <point x="360" y="708" type="line"/>
      <point x="360" y="644" type="line"/>
      <point x="286" y="644" type="line"/>
      <point x="286" y="64" type="line"/>
      <point x="360" y="64" type="line"/>
      <point x="360" y="0" type="line"/>
      <point x="20" y="0" type="line"/>
      <point x="20" y="64" type="line"/>
      <point x="94" y="64" type="line"/>
      <point x="94" y="644" type="line"/>
      <point x="20" y="644" type="line"/>
    </contour>
  </outline>
</glyph>
<glyph name="J" format="2">
  <advance width="444"/>
  <unicode hex="004A"/>
  <outline>
    <contour>
      <point x="78" y="708" type="line"/>
      <point x="404" y="708" type="line"/>
      <point x="404" y="254" type="line" smooth="yes"/>
      <point x="404" y="58"/>
      <point x="274" y="-8"/>
      <point x="126" y="-8" type="curve" smooth="yes"/>
      <point x="77" y="-8"/>
      <point x="33" y="3"/>
      <point x="24" y="5" type="curve"/>
      <point x="29" y="88" type="line"/>
      <point x="83" y="86" type="line" smooth="yes"/>
      <point x="153" y="83"/>
      <point x="212" y="122"/>
      <point x="212" y="205" type="curve" smooth="yes"/>
      <point x="212" y="612" type="line"/>
      <point x="78" y="612" type="line"/>
    </contour>
  </outline>
</glyph>
<glyph name="L" format="2">
  <advance width="597"/>
  <unicode hex="004C"/>
  <outline>
    <contour>
      <point x="16" y="708" type="line"/>
      <point x="356" y="708" type="line"/>
      <point x="356" y="636" type="line"/>
      <point x="282" y="636" type="line"/>
      <point x="282" y="72" type="line"/>
      <point x="525" y="72" type="line"/>
      <point x="525" y="148" type="line"/>
      <point x="597" y="148" type="line"/>
      <point x="597" y="0" type="line"/>
      <point x="16" y="0" type="line"/>
      <point x="16" y="72" type="line"/>
      <point x="90" y="72" type="line"/>
      <point x="90" y="636" type="line"/>
      <point x="16" y="636" type="line"/>
    </contour>
  </outline>
</glyph>
<glyph name="N" format="2">
  <advance width="722"/>
  <unicode hex="004E"/>
  <outline>
    <contour>
      <point x="16" y="708" type="line"/>
      <point x="244" y="708" type="line"/>
      <point x="560" y="194" type="line"/>
      <point x="560" y="637" type="line"/>
      <point x="494" y="637" type="line"/>
      <point x="494" y="708" type="line"/>
      <point x="706" y="708" type="line"/>
      <point x="706" y="636" type="line"/>
      <point x="640" y="636" type="line"/>
      <point x="640" y="37" type="line"/>
      <point x="475" y="0" type="line"/>
      <point x="162" y="555" type="line"/>
      <point x="162" y="72" type="line"/>
      <point x="228" y="72" type="line"/>
      <point x="228" y="0" type="line"/>
      <point x="16" y="0" type="line"/>
      <point x="16" y="72" type="line"/>
      <point x="82" y="72" type="line"/>
      <point x="82" y="636" type="line"/>
      <point x="16" y="636" type="line"/>
    </contour>
  </outline>
</glyph>
<glyph name="P" format="2">
  <advance width="692"/>
  <unicode hex="0050"/>
  <outline>
    <contour>
      <point x="12" y="708" type="line"/>
      <point x="391" y="708" type="line" smooth="yes"/>
      <point x="544" y="708"/>
      <point x="660" y="640"/>
      <point x="660" y="483" type="curve" smooth="yes"/>
      <point x="660" y="343"/>
      <point x="544" y="254"/>
      <point x="391" y="254" type="curve" smooth="yes"/>
      <point x="268" y="254" type="line"/>
      <point x="268" y="72" type="line"/>
      <point x="337" y="72" type="line"/>
      <point x="337" y="0" type="line"/>
      <point x="12" y="0" type="line"/>
      <point x="12" y="72" type="line"/>
      <point x="76" y="72" type="line"/>
      <point x="76" y="636" type="line"/>
      <point x="12" y="636" type="line"/>
    </contour>
    <contour>
      <point x="268" y="636" type="line"/>
      <point x="268" y="326" type="line"/>
      <point x="322" y="326" type="line" smooth="yes"/>
      <point x="406" y="326"/>
      <point x="473" y="380"/>
      <point x="473" y="486" type="curve" smooth="yes"/>
      <point x="473" y="593"/>
      <point x="406" y="636"/>
      <point x="322" y="636" type="curve" smooth="yes"/>
    </contour>
  </outline>
</glyph>
<glyph name="R" format="2">
  <advance width="736"/>
  <unicode hex="0052"/>
  <outline>
    <contour>
      <point x="16" y="708" type="line"/>
      <point x="434" y="708" type="line" smooth="yes"/>
      <point x="578" y="708"/>
      <point x="664" y="622"/>
      <point x="664" y="490" type="curve" smooth="yes"/>
      <point x="664" y="369"/>
      <point x="596" y="308"/>
      <point x="498" y="288" type="curve"/>
      <point x="641" y="72" type="line"/>
      <point x="720" y="72" type="line"/>
      <point x="720" y="0" type="line"/>
      <point x="513" y="0" type="line"/>
      <point x="464" y="32" type="line"/>
      <point x="308" y="278" type="line"/>
      <point x="282" y="278" type="line"/>
      <point x="282" y="72" type="line"/>
      <point x="359" y="72" type="line"/>
      <point x="359" y="0" type="line"/>
      <point x="16" y="0" type="line"/>
      <point x="16" y="72" type="line"/>
      <point x="90" y="72" type="line"/>
      <point x="90" y="636" type="line"/>
      <point x="16" y="636" type="line"/>
    </contour>
    <contour>
      <point x="282" y="342" type="line"/>
      <point x="315" y="342" type="line" smooth="yes"/>
      <point x="427" y="342"/>
      <point x="472" y="387"/>
      <point x="472" y="492" type="curve" smooth="yes"/>
      <point x="472" y="589"/>
      <point x="431" y="636"/>
      <point x="334" y="636" type="curve" smooth="yes"/>
      <point x="282" y="636" type="line"/>
    </contour>
  </outline>
</glyph>
<glyph name="S" format="2">
  <advance width="647"/>
  <unicode hex="0053"/>
  <outline>
    <contour>
      <point x="340" y="716" type="curve" smooth="yes"/>
      <point x="439" y="716"/>
      <point x="516" y="697"/>
      <point x="601" y="645" type="curve"/>
      <point x="601" y="479" type="line"/>
      <point x="483" y="479" type="line"/>
      <point x="461" y="609" type="line"/>
      <point x="429" y="623"/>
      <point x="408" y="629"/>
      <point x="365" y="629" type="curve" smooth="yes"/>
      <point x="268" y="629"/>
      <point x="234" y="583"/>
      <point x="234" y="543" type="curve" smooth="yes"/>
      <point x="234" y="482"/>
      <point x="254" y="450"/>
      <point x="332" y="433" type="curve" smooth="yes"/>
      <point x="383" y="422" type="line" smooth="yes"/>
      <point x="546" y="387"/>
      <point x="615" y="326"/>
      <point x="615" y="208" type="curve" smooth="yes"/>
      <point x="615" y="68"/>
      <point x="507" y="-8"/>
      <point x="293" y="-8" type="curve" smooth="yes"/>
      <point x="191" y="-8"/>
      <point x="85" y="26"/>
      <point x="36" y="60" type="curve"/>
      <point x="36" y="219" type="line"/>
      <point x="146" y="219" type="line"/>
      <point x="169" y="110" type="line"/>
      <point x="197" y="90"/>
      <point x="235" y="77"/>
      <point x="306" y="77" type="curve" smooth="yes"/>
      <point x="377" y="77"/>
      <point x="437" y="109"/>
      <point x="437" y="169" type="curve" smooth="yes"/>
      <point x="437" y="229"/>
      <point x="402" y="254"/>
      <point x="315" y="273" type="curve" smooth="yes"/>
      <point x="270" y="283" type="line" smooth="yes"/>
      <point x="125" y="315"/>
      <point x="45" y="374"/>
      <point x="45" y="505" type="curve" smooth="yes"/>
      <point x="45" y="636"/>
      <point x="146" y="716"/>
    </contour>
  </outline>
</glyph>
<glyph name="U" format="2">
  <advance width="771"/>
  <unicode hex="0055"/>
  <anchor x="278.8" y="880" name="AccentCenter"/>
  <outline>
    <contour>
      <point x="16" y="708" type="line"/>
      <point x="356" y="708" type="line"/>
      <point x="356" y="636" type="line"/>
      <point x="282" y="636" type="line"/>
      <point x="282" y="228" type="line" smooth="yes"/>
      <point x="282" y="123"/>
      <point x="356" y="73"/>
      <point x="434" y="73" type="curve" smooth="yes"/>
      <point x="512" y="73"/>
      <point x="578" y="131"/>
      <point x="578" y="228" type="curve" smooth="yes"/>
      <point x="578" y="636" type="line"/>
      <point x="507" y="636" type="line"/>
      <point x="507" y="708" type="line"/>
      <point x="727" y="708" type="line"/>
      <point x="727" y="636" type="line"/>
      <point x="656" y="636" type="line"/>
      <point x="656" y="259" type="line" smooth="yes"/>
      <point x="656" y="65"/>
      <point x="516" y="-6"/>
      <point x="374" y="-6" type="curve" smooth="yes"/>
      <point x="231" y="-6"/>
      <point x="90" y="63"/>
      <point x="90" y="259" type="curve" smooth="yes"/>
      <point x="90" y="637" type="line"/>
      <point x="16" y="637" type="line"/>
    </contour>
  </outline>
</glyph>
<glyph name="V" format="2">
  <advance width="756"/>
  <unicode hex="0056"/>
  <outline>
    <contour>
      <point x="5" y="708" type="line"/>
      <point x="311" y="708" type="line"/>
      <point x="311" y="612" type="line"/>
      <point x="234" y="612" type="line"/>
      <point x="423" y="97" type="line"/>
      <point x="591" y="612" type="line"/>
      <point x="545" y="612" type="line"/>
      <point x="545" y="708" type="line"/>
      <point x="753" y="708" type="line"/>
      <point x="753" y="612" type="line"/>
      <point x="697" y="612" type="line"/>
      <point x="486" y="0" type="line"/>
      <point x="272" y="0" type="line"/>
      <point x="61" y="612" type="line"/>
      <point x="5" y="612" type="line"/>
    </contour>
  </outline>
</glyph>
<glyph name="W" format="2">
  <advance width="1095"/>
  <unicode hex="0057"/>
  <outline>
    <contour>
      <point x="12" y="708" type="line"/>
      <point x="323" y="708" type="line"/>
      <point x="323" y="612" type="line"/>
      <point x="246" y="612" type="line"/>
      <point x="401" y="96" type="line"/>
      <point x="531" y="612" type="line"/>
      <point x="475" y="612" type="line"/>
      <point x="475" y="708" type="line"/>
      <point x="686" y="708" type="line"/>
      <point x="686" y="612" type="line"/>
      <point x="627" y="612" type="line"/>
      <point x="790" y="96" type="line"/>
      <point x="928" y="612" type="line"/>
      <point x="872" y="612" type="line"/>
      <point x="872" y="708" type="line"/>
      <point x="1083" y="708" type="line"/>
      <point x="1083" y="612" type="line"/>
      <point x="1024" y="612" type="line"/>
      <point x="860" y="0" type="line"/>
      <point x="665" y="-1" type="line"/>
      <point x="564" y="355" type="line"/>
      <point x="471" y="0" type="line"/>
      <point x="277" y="0" type="line"/>
      <point x="73" y="612" type="line"/>
      <point x="12" y="612" type="line"/>
    </contour>
  </outline>
</glyph>
<glyph name="Y" format="2">
  <advance width="677"/>
  <unicode hex="0059"/>
  <anchor x="318" y="880" name="AccentCenter"/>
  <outline>
    <contour>
      <point x="0" y="708" type="line"/>
      <point x="325" y="708" type="line"/>
      <point x="325" y="612" type="line"/>
      <point x="273" y="612" type="line"/>
      <point x="382" y="376" type="line"/>
      <point x="495" y="612" type="line"/>
      <point x="437" y="612" type="line"/>
      <point x="437" y="708" type="line"/>
      <point x="677" y="708" type="line"/>
      <point x="677" y="612" type="line"/>
      <point x="583" y="612" type="line"/>
      <point x="442" y="313" type="line"/>
      <point x="442" y="96" type="line"/>
      <point x="516" y="96" type="line"/>
      <point x="516" y="0" type="line"/>
      <point x="176" y="0" type="line"/>
      <point x="176" y="96" type="line"/>
      <point x="250" y="96" type="line"/>
      <point x="250" y="313" type="line"/>
      <point x="72" y="612" type="line"/>
      <point x="0" y="612" type="line"/>
    </contour>
  </outline>
</glyph>
<glyph name="Z" format="2">
  <advance width="687"/>
  <unicode hex="005A"/>
  <outline>
    <contour>
      <point x="16" y="708" type="line"/>
      <point x="671" y="708" type="line"/>
      <point x="671" y="629" type="line"/>
      <point x="247" y="72" type="line"/>
      <point x="599" y="72" type="line"/>
      <point x="599" y="167" type="line"/>
      <point x="671" y="167" type="line"/>
      <point x="671" y="0" type="line"/>
      <point x="16" y="0" type="line"/>
      <point x="16" y="79" type="line"/>
      <point x="454" y="636" type="line"/>
      <point x="88" y="636" type="line"/>
      <point x="88" y="541" type="line"/>
      <point x="16" y="541" type="line"/>
    </contour>
  </outline>
</glyph>
<glyph name="a" format="2">
  <advance width="588"/>
  <unicode hex="0061"/>
  <anchor x="267" y="687" name="AccentCenter"/>
  <anchor x="257" y="687" name="Ring"/>
  <outline>
    <contour>
      <point x="317" y="219" type="line"/>
      <point x="276" y="219" type="line" smooth="yes"/>
      <point x="241" y="219"/>
      <point x="208" y="205"/>
      <point x="208" y="156" type="curve" smooth="yes"/>
      <point x="208" y="113"/>
      <point x="232" y="96"/>
      <point x="260" y="96" type="curve" smooth="yes"/>
      <point x="294" y="96"/>
      <point x="310" y="118"/>
      <point x="317" y="127" type="curve"/>
    </contour>
    <contour>
      <point x="257" y="528" type="curve" smooth="yes"/>
      <point x="402" y="528"/>
      <point x="498" y="465"/>
      <point x="498" y="313" type="curve" smooth="yes"/>
      <point x="498" y="99" type="line"/>
      <point x="561" y="112" type="line"/>
      <point x="577" y="15" type="line"/>
      <point x="454" y="-8" type="line"/>
      <point x="394" y="-8"/>
      <point x="345" y="17"/>
      <point x="333" y="70" type="curve"/>
      <point x="300" y="22"/>
      <point x="261" y="-8"/>
      <point x="194" y="-8" type="curve" smooth="yes"/>
      <point x="105" y="-8"/>
      <point x="32" y="40"/>
      <point x="32" y="143" type="curve" smooth="yes"/>
      <point x="32" y="243"/>
      <point x="92" y="310"/>
      <point x="231" y="310" type="curve" smooth="yes"/>
      <point x="317" y="310" type="line"/>
      <point x="317" y="328" type="line" smooth="yes"/>
      <point x="317" y="365"/>
      <point x="300" y="416"/>
      <point x="219" y="416" type="curve" smooth="yes"/>
      <point x="181" y="416"/>
      <point x="120" y="398"/>
      <point x="87" y="380" type="curve"/>
      <point x="61" y="479" type="line"/>
      <point x="128" y="516"/>
      <point x="209" y="528"/>
    </contour>
  </outline>
</glyph>
<glyph name="c" format="2">
  <advance width="536"/>
  <unicode hex="0063"/>
  <outline>
    <contour>
      <point x="313" y="528" type="curve" smooth="yes"/>
      <point x="390" y="528"/>
      <point x="453" y="510"/>
      <point x="508" y="467" type="curve"/>
      <point x="508" y="467"/>
      <point x="494" y="402"/>
      <point x="486" y="365" type="curve" smooth="yes"/>
      <point x="480" y="342"/>
      <point x="463" y="332"/>
      <point x="436" y="332" type="curve" smooth="yes"/>
      <point x="411" y="332" type="line"/>
      <point x="381" y="456" type="line"/>
      <point x="376" y="456"/>
      <point x="371" y="456"/>
      <point x="368" y="456" type="curve"/>
      <point x="286" y="456"/>
      <point x="224" y="410"/>
      <point x="224" y="260" type="curve" smooth="yes"/>
      <point x="224" y="108"/>
      <point x="280" y="65"/>
      <point x="360" y="65" type="curve" smooth="yes"/>
      <point x="414" y="65"/>
      <point x="476" y="88"/>
      <point x="510" y="114" type="curve"/>
      <point x="520" y="49" type="line"/>
      <point x="474" y="16"/>
      <point x="385" y="-8"/>
      <point x="311" y="-8" type="curve" smooth="yes"/>
      <point x="117" y="-8"/>
      <point x="32" y="107"/>
      <point x="32" y="260" type="curve" smooth="yes"/>
      <point x="32" y="418"/>
      <point x="116" y="528"/>
    </contour>
  </outline>
</glyph>
<glyph name="d" format="2">
  <advance width="678"/>
  <unicode hex="0064"/>
  <outline>
    <contour>
      <point x="333" y="708" type="line"/>
      <point x="315" y="612" type="line"/>
      <point x="394" y="612" type="line"/>
      <point x="394" y="468" type="line"/>
      <point x="360" y="511"/>
      <point x="311" y="528"/>
      <point x="247" y="528" type="curve" smooth="yes"/>
      <point x="132" y="528"/>
      <point x="32" y="462"/>
      <point x="32" y="262" type="curve" smooth="yes"/>
      <point x="32" y="60"/>
      <point x="131" y="-8"/>
      <point x="256" y="-8" type="curve" smooth="yes"/>
      <point x="324" y="-8"/>
      <point x="376" y="24"/>
      <point x="403" y="62" type="curve"/>
      <point x="432" y="0" type="line"/>
      <point x="638" y="0" type="line"/>
      <point x="638" y="96" type="line"/>
      <point x="582" y="96" type="line"/>
      <point x="582" y="708" type="line"/>
    </contour>
    <contour>
      <point x="311" y="425" type="curve" smooth="yes"/>
      <point x="344" y="425"/>
      <point x="374" y="406"/>
      <point x="394" y="367" type="curve"/>
      <point x="394" y="152" type="line"/>
      <point x="377" y="124"/>
      <point x="355" y="98"/>
      <point x="311" y="98" type="curve" smooth="yes"/>
      <point x="239" y="98"/>
      <point x="216" y="134"/>
      <point x="216" y="260" type="curve" smooth="yes"/>
      <point x="216" y="379"/>
      <point x="229" y="425"/>
    </contour>
  </outline>
</glyph>
<glyph name="h" format="2">
  <advance width="718"/>
  <unicode hex="0068"/>
  <outline>
    <contour>
      <point x="53" y="660" type="line"/>
      <point x="307" y="716" type="line"/>
      <point x="307" y="459" type="line"/>
      <point x="340" y="501"/>
      <point x="390" y="528"/>
      <point x="462" y="528" type="curve" smooth="yes"/>
      <point x="565" y="528"/>
      <point x="650" y="459"/>
      <point x="650" y="329" type="curve" smooth="yes"/>
      <point x="650" y="96" type="line"/>
      <point x="714" y="96" type="line"/>
      <point x="714" y="0" type="line"/>
      <point x="394" y="0" type="line"/>
      <point x="394" y="96" type="line"/>
      <point x="458" y="96" type="line"/>
      <point x="458" y="314" type="line" smooth="yes"/>
      <point x="458" y="392"/>
      <point x="427" y="414"/>
      <point x="392" y="414" type="curve" smooth="yes"/>
      <point x="348" y="414"/>
      <point x="326" y="396"/>
      <point x="307" y="378" type="curve"/>
      <point x="307" y="0" type="line"/>
      <point x="52" y="0" type="line"/>
      <point x="52" y="96" type="line"/>
      <point x="116" y="96" type="line"/>
      <point x="116" y="583" type="line"/>
      <point x="53" y="570" type="line"/>
    </contour>
  </outline>
</glyph>
<glyph name="i" format="2">
  <advance width="352"/>
  <unicode hex="0069"/>
  <outline>
    <contour>
      <point x="196" y="743" type="curve" smooth="yes"/>
      <point x="252" y="743"/>
      <point x="292" y="700"/>
      <point x="292" y="645" type="curve" smooth="yes"/>
      <point x="292" y="589"/>
      <point x="252" y="549"/>
      <point x="196" y="549" type="curve" smooth="yes"/>
      <point x="141" y="549"/>
      <point x="98" y="589"/>
      <point x="98" y="645" type="curve" smooth="yes"/>
      <point x="98" y="700"/>
      <point x="141" y="743"/>
    </contour>
    <component base="dotlessi" xOffset="4"/>
  </outline>
</glyph>
<glyph name="k" format="2">
  <advance width="699"/>
  <unicode hex="006B"/>
  <outline>
    <contour>
      <point x="40" y="708" type="line"/>
      <point x="299" y="708" type="line"/>
      <point x="299" y="271" type="line"/>
      <point x="452" y="425" type="line"/>
      <point x="391" y="425" type="line"/>
      <point x="391" y="520" type="line"/>
      <point x="639" y="520" type="line"/>
      <point x="639" y="425" type="line"/>
      <point x="559" y="425" type="line"/>
      <point x="434" y="296" type="line"/>
      <point x="630" y="96" type="line"/>
      <point x="699" y="96" type="line"/>
      <point x="699" y="0" type="line"/>
      <point x="503" y="0" type="line"/>
      <point x="304" y="225" type="line"/>
      <point x="299" y="225" type="line"/>
      <point x="299" y="96" type="line"/>
      <point x="373" y="96" type="line"/>
      <point x="373" y="0" type="line"/>
      <point x="40" y="0" type="line"/>
      <point x="40" y="96" type="line"/>
      <point x="114" y="96" type="line"/>
      <point x="114" y="612" type="line"/>
      <point x="40" y="612" type="line"/>
    </contour>
  </outline>
</glyph>
<glyph name="l" format="2">
  <advance width="372"/>
  <unicode hex="006C"/>
  <outline>
    <contour>
      <point x="16" y="772" type="line"/>
      <point x="282" y="772" type="line"/>
      <point x="282" y="72" type="line"/>
      <point x="356" y="72" type="line"/>
      <point x="356" y="0" type="line"/>
      <point x="16" y="0" type="line"/>
      <point x="16" y="72" type="line"/>
      <point x="90" y="72" type="line"/>
      <point x="90" y="700" type="line"/>
      <point x="16" y="700" type="line"/>
    </contour>
  </outline>
</glyph>
<glyph name="m" format="2">
  <advance width="1011"/>
  <unicode hex="006D"/>
  <outline>
    <contour>
      <point x="41" y="472" type="line"/>
      <point x="295" y="528" type="line"/>
      <point x="295" y="455" type="line"/>
      <point x="329" y="510"/>
      <point x="381" y="528"/>
      <point x="436" y="528" type="curve" smooth="yes"/>
      <point x="502" y="528"/>
      <point x="559" y="512"/>
      <point x="586.9774169921875" y="444.135986328125" type="curve"/>
      <point x="621.1138305664062" y="497.2144775390625"/>
      <point x="682" y="528"/>
      <point x="753" y="528" type="curve" smooth="yes"/>
      <point x="856" y="528"/>
      <point x="923" y="459"/>
      <point x="923" y="329" type="curve" smooth="yes"/>
      <point x="923" y="98" type="line"/>
      <point x="987" y="98" type="line"/>
      <point x="987" y="0" type="line"/>
      <point x="731" y="0" type="line"/>
      <point x="731" y="337" type="line" smooth="yes"/>
      <point x="731" y="397"/>
      <point x="713" y="414"/>
      <point x="678" y="414" type="curve" smooth="yes"/>
      <point x="652" y="414"/>
      <point x="628" y="399"/>
      <point x="613" y="366" type="curve"/>
      <point x="613" y="98" type="line"/>
      <point x="677" y="98" type="line"/>
      <point x="677" y="0" type="line"/>
      <point x="421" y="0" type="line"/>
      <point x="421" y="337" type="line" smooth="yes"/>
      <point x="421" y="393"/>
      <point x="400" y="414"/>
      <point x="365" y="414" type="curve" smooth="yes"/>
      <point x="321" y="414"/>
      <point x="307" y="392"/>
      <point x="295" y="366" type="curve"/>
      <point x="295" y="98" type="line"/>
      <point x="359" y="98" type="line"/>
      <point x="359" y="0" type="line"/>
      <point x="40" y="0" type="line"/>
      <point x="40" y="98" type="line"/>
      <point x="104" y="98" type="line"/>
      <point x="104" y="388" type="line"/>
      <point x="41" y="388" type="line"/>
    </contour>
  </outline>
</glyph>
<glyph name="n" format="2">
  <advance width="726"/>
  <unicode hex="006E"/>
  <anchor x="274.4" y="687" name="AccentCenter"/>
  <outline>
    <contour>
      <point x="41" y="472" type="line"/>
      <point x="295" y="528" type="line"/>
      <point x="295" y="463" type="line"/>
      <point x="334" y="502"/>
      <point x="378" y="528"/>
      <point x="450" y="528" type="curve" smooth="yes"/>
      <point x="553" y="528"/>
      <point x="638" y="459"/>
      <point x="638" y="329" type="curve" smooth="yes"/>
      <point x="638" y="96" type="line"/>
      <point x="702" y="96" type="line"/>
      <point x="702" y="0" type="line"/>
      <point x="446" y="0" type="line"/>
      <point x="446" y="314" type="line" smooth="yes"/>
      <point x="446" y="392"/>
      <point x="415" y="414"/>
      <point x="380" y="414" type="curve" smooth="yes"/>
      <point x="336" y="414"/>
      <point x="315" y="390"/>
      <point x="295" y="363" type="curve"/>
      <point x="295" y="96" type="line"/>
      <point x="359" y="96" type="line"/>
      <point x="359" y="0" type="line"/>
      <point x="40" y="0" type="line"/>
      <point x="40" y="96" type="line"/>
      <point x="104" y="96" type="line"/>
      <point x="104" y="402" type="line"/>
      <point x="41" y="402" type="line"/>
    </contour>
  </outline>
</glyph>
<glyph name="o" format="2">
  <advance width="619"/>
  <unicode hex="006F"/>
  <anchor x="316" y="687" name="AccentCenter"/>
  <outline>
    <contour>
      <point x="307" y="432" type="curve" smooth="yes"/>
      <point x="244" y="432"/>
      <point x="224" y="372"/>
      <point x="224" y="258" type="curve" smooth="yes"/>
      <point x="224" y="138"/>
      <point x="243" y="88"/>
      <point x="307" y="88" type="curve" smooth="yes"/>
      <point x="371" y="88"/>
      <point x="395" y="140"/>
      <point x="395" y="260" type="curve" smooth="yes"/>
      <point x="395" y="373"/>
      <point x="370" y="432"/>
    </contour>
    <contour>
      <point x="307" y="528" type="curve" smooth="yes"/>
      <point x="482" y="528"/>
      <point x="587" y="434"/>
      <point x="587" y="257" type="curve" smooth="yes"/>
      <point x="587" y="89"/>
      <point x="477" y="-8"/>
      <point x="307" y="-8" type="curve" smooth="yes"/>
      <point x="137" y="-8"/>
      <point x="32" y="87"/>
      <point x="32" y="259" type="curve" smooth="yes"/>
      <point x="32" y="435"/>
      <point x="133" y="528"/>
    </contour>
  </outline>
</glyph>
<glyph name="p" format="2">
  <advance width="678"/>
  <unicode hex="0070"/>
  <outline>
    <contour>
      <point x="40" y="520" type="line"/>
      <point x="246" y="520" type="line"/>
      <point x="275" y="458" type="line"/>
      <point x="302" y="496"/>
      <point x="354" y="528"/>
      <point x="422" y="528" type="curve" smooth="yes"/>
      <point x="547" y="528"/>
      <point x="646" y="453"/>
      <point x="646" y="258" type="curve" smooth="yes"/>
      <point x="646" y="58"/>
      <point x="532" y="-8"/>
      <point x="417" y="-8" type="curve" smooth="yes"/>
      <point x="344" y="-8"/>
      <point x="313" y="9"/>
      <point x="284" y="28" type="curve"/>
      <point x="284" y="-100" type="line"/>
      <point x="340" y="-100" type="line"/>
      <point x="340" y="-195" type="line"/>
      <point x="96" y="-195" type="line"/>
      <point x="96" y="424" type="line"/>
      <point x="40" y="424" type="line"/>
    </contour>
    <contour>
      <point x="284" y="366" type="curve"/>
      <point x="284" y="107" type="line"/>
      <point x="304" y="93"/>
      <point x="329" y="84"/>
      <point x="362" y="84" type="curve" smooth="yes"/>
      <point x="423" y="84"/>
      <point x="462" y="141"/>
      <point x="462" y="260" type="curve" smooth="yes"/>
      <point x="462" y="365"/>
      <point x="426" y="420"/>
      <point x="367" y="420" type="curve" smooth="yes"/>
      <point x="323" y="420"/>
      <point x="296" y="393"/>
    </contour>
  </outline>
</glyph>
<glyph name="q" format="2">
  <advance width="678"/>
  <unicode hex="0071"/>
  <outline>
    <contour>
      <point x="394" y="382" type="curve"/>
      <point x="394" y="122" type="line"/>
      <point x="377" y="106"/>
      <point x="348" y="90"/>
      <point x="307" y="90" type="curve" smooth="yes"/>
      <point x="245" y="90"/>
      <point x="216" y="141"/>
      <point x="216" y="260" type="curve" smooth="yes"/>
      <point x="216" y="386"/>
      <point x="254" y="420"/>
      <point x="314" y="420" type="curve" smooth="yes"/>
      <point x="350" y="420"/>
      <point x="375" y="402"/>
    </contour>
    <contour>
      <point x="286" y="528" type="curve" smooth="yes"/>
      <point x="161" y="528"/>
      <point x="32" y="460"/>
      <point x="32" y="258" type="curve" smooth="yes"/>
      <point x="32" y="58"/>
      <point x="136" y="-8"/>
      <point x="251" y="-8" type="curve" smooth="yes"/>
      <point x="315" y="-8"/>
      <point x="360" y="12"/>
      <point x="394" y="41" type="curve"/>
      <point x="394" y="-196" type="line"/>
      <point x="638" y="-196" type="line"/>
      <point x="638" y="-100" type="line"/>
      <point x="582" y="-100" type="line"/>
      <point x="582" y="407" type="line"/>
      <point x="638" y="420" type="line"/>
      <point x="638" y="520" type="line"/>
      <point x="583" y="508"/>
      <point x="527" y="483"/>
      <point x="478" y="449" type="curve"/>
      <point x="430" y="494"/>
      <point x="375" y="528"/>
    </contour>
  </outline>
</glyph>
<glyph name="r" format="2">
  <advance width="513"/>
  <unicode hex="0072"/>
  <outline>
    <contour>
      <point x="256" y="528" type="line"/>
      <point x="283" y="404" type="line"/>
      <point x="313" y="484"/>
      <point x="376" y="528"/>
      <point x="452" y="528" type="curve" smooth="yes"/>
      <point x="464" y="528"/>
      <point x="478" y="527"/>
      <point x="493" y="526" type="curve"/>
      <point x="483" y="389" type="line"/>
      <point x="424" y="389" type="line"/>
      <point x="354" y="389"/>
      <point x="313" y="339"/>
      <point x="306" y="303" type="curve"/>
      <point x="306" y="96" type="line"/>
      <point x="380" y="96" type="line"/>
      <point x="380" y="0" type="line"/>
      <point x="40" y="0" type="line"/>
      <point x="40" y="96" type="line"/>
      <point x="114" y="96" type="line"/>
      <point x="115" y="403" type="line"/>
      <point x="41" y="391" type="line"/>
      <point x="41" y="492" type="line"/>
    </contour>
  </outline>
</glyph>
<glyph name="s" format="2">
  <advance width="572"/>
  <unicode hex="0073"/>
  <outline>
    <contour>
      <point x="299" y="528" type="curve" smooth="yes"/>
      <point x="387" y="528"/>
      <point x="457" y="505"/>
      <point x="509" y="475" type="curve"/>
      <point x="508" y="351" type="line"/>
      <point x="390" y="351" type="line"/>
      <point x="384" y="417" type="line"/>
      <point x="369" y="426"/>
      <point x="345" y="435"/>
      <point x="309" y="435" type="curve" smooth="yes"/>
      <point x="258" y="435"/>
      <point x="223" y="418"/>
      <point x="223" y="386" type="curve" smooth="yes"/>
      <point x="223" y="353"/>
      <point x="245" y="336"/>
      <point x="288" y="327" type="curve" smooth="yes"/>
      <point x="370" y="312" type="line" smooth="yes"/>
      <point x="477" y="292"/>
      <point x="532" y="249"/>
      <point x="532" y="159" type="curve" smooth="yes"/>
      <point x="532" y="50"/>
      <point x="446" y="-8"/>
      <point x="269" y="-8" type="curve" smooth="yes"/>
      <point x="165" y="-8"/>
      <point x="78" y="23"/>
      <point x="32" y="58" type="curve"/>
      <point x="73" y="145" type="line"/>
      <point x="119" y="110"/>
      <point x="189" y="93"/>
      <point x="262" y="93" type="curve" smooth="yes"/>
      <point x="321" y="93"/>
      <point x="361" y="106"/>
      <point x="361" y="141" type="curve" smooth="yes"/>
      <point x="361" y="163"/>
      <point x="341" y="179"/>
      <point x="293" y="188" type="curve" smooth="yes"/>
      <point x="216" y="201" type="line" smooth="yes"/>
      <point x="108" y="220"/>
      <point x="54" y="262"/>
      <point x="53" y="359" type="curve" smooth="yes"/>
      <point x="53" y="462"/>
      <point x="142" y="528"/>
    </contour>
  </outline>
</glyph>
<glyph name="t" format="2">
  <advance width="453"/>
  <unicode hex="0074"/>
  <outline>
    <contour>
      <point x="100" y="614" type="line"/>
      <point x="292" y="687" type="line"/>
      <point x="292" y="520" type="line"/>
      <point x="411" y="520" type="line"/>
      <point x="411" y="406" type="line"/>
      <point x="292" y="406" type="line"/>
      <point x="292" y="161" type="line" smooth="yes"/>
      <point x="292" y="123"/>
      <point x="308" y="85"/>
      <point x="363" y="85" type="curve"/>
      <point x="381" y="85"/>
      <point x="394" y="86"/>
      <point x="410" y="89" type="curve"/>
      <point x="420" y="91" type="line"/>
      <point x="427" y="5" type="line"/>
      <point x="368" y="-4"/>
      <point x="339" y="-7"/>
      <point x="305" y="-7" type="curve" smooth="yes"/>
      <point x="164" y="-7"/>
      <point x="100" y="59"/>
      <point x="100" y="206" type="curve" smooth="yes"/>
      <point x="100" y="406" type="line"/>
      <point x="7" y="406" type="line"/>
      <point x="7" y="489" type="line"/>
      <point x="100" y="520" type="line"/>
    </contour>
  </outline>
</glyph>
<glyph name="u" format="2">
  <advance width="709"/>
  <unicode hex="0075"/>
  <anchor x="276" y="687" name="AccentCenter"/>
  <outline>
    <contour>
      <point x="24" y="520" type="line"/>
      <point x="280" y="520" type="line"/>
      <point x="280" y="204" type="line" smooth="yes"/>
      <point x="280" y="126"/>
      <point x="311" y="104"/>
      <point x="346" y="104" type="curve" smooth="yes"/>
      <point x="378" y="104"/>
      <point x="407" y="124"/>
      <point x="431" y="158" type="curve"/>
      <point x="431" y="424" type="line"/>
      <point x="367" y="424" type="line"/>
      <point x="367" y="520" type="line"/>
      <point x="622" y="520" type="line"/>
      <point x="622" y="96" type="line"/>
      <point x="685" y="96" type="line"/>
      <point x="685" y="0" type="line"/>
      <point x="431" y="0" type="line"/>
      <point x="431" y="57" type="line"/>
      <point x="383" y="10"/>
      <point x="348" y="-8"/>
      <point x="276" y="-8" type="curve" smooth="yes"/>
      <point x="173" y="-8"/>
      <point x="88" y="61"/>
      <point x="88" y="191" type="curve" smooth="yes"/>
      <point x="88" y="424" type="line"/>
      <point x="24" y="424" type="line"/>
    </contour>
  </outline>
</glyph>
<glyph name="v" format="2">
  <advance width="666"/>
  <unicode hex="0076"/>
  <outline>
    <contour>
      <point x="0" y="520" type="line"/>
      <point x="311" y="520" type="line"/>
      <point x="311" y="448" type="line"/>
      <point x="234" y="448" type="line"/>
      <point x="383" y="65" type="line"/>
      <point x="522" y="448" type="line"/>
      <point x="455" y="448" type="line"/>
      <point x="455" y="520" type="line"/>
      <point x="666" y="520" type="line"/>
      <point x="666" y="448" type="line"/>
      <point x="607" y="448" type="line"/>
      <point x="446" y="0" type="line"/>
      <point x="232" y="0" type="line"/>
      <point x="61" y="448" type="line"/>
      <point x="0" y="448" type="line"/>
    </contour>
  </outline>
</glyph>
<glyph name="w" format="2">
  <advance width="1007"/>
  <unicode hex="0077"/>
  <outline>
    <contour>
      <point x="0" y="520" type="line"/>
      <point x="311" y="520" type="line"/>
      <point x="311" y="448" type="line"/>
      <point x="234" y="448" type="line"/>
      <point x="353" y="65" type="line"/>
      <point x="462" y="448" type="line"/>
      <point x="395" y="448" type="line"/>
      <point x="395" y="520" type="line"/>
      <point x="706" y="520" type="line"/>
      <point x="706" y="448" type="line"/>
      <point x="635" y="448" type="line"/>
      <point x="754" y="65" type="line"/>
      <point x="863" y="448" type="line"/>
      <point x="796" y="448" type="line"/>
      <point x="796" y="520" type="line"/>
      <point x="1007" y="520" type="line"/>
      <point x="1007" y="448" type="line"/>
      <point x="948" y="448" type="line"/>
      <point x="817" y="0" type="line"/>
      <point x="603" y="0" type="line"/>
      <point x="506.0625" y="308" type="line"/>
      <point x="416" y="0" type="line"/>
      <point x="202" y="0" type="line"/>
      <point x="61" y="448" type="line"/>
      <point x="0" y="448" type="line"/>
    </contour>
  </outline>
</glyph>
<glyph name="x" format="2">
  <advance width="612"/>
  <unicode hex="0078"/>
  <outline>
    <contour>
      <point x="12" y="520" type="line"/>
      <point x="12" y="424" type="line"/>
      <point x="58" y="424" type="line"/>
      <point x="214.453125" y="248.25811767578125" type="line"/>
      <point x="95.19391632080078" y="96" type="line"/>
      <point x="12" y="96" type="line"/>
      <point x="12" y="0" type="line"/>
      <point x="243" y="0" type="line"/>
      <point x="243" y="96" type="line"/>
      <point x="183.1939239501953" y="96" type="line"/>
      <point x="261.26568603515625" y="195.67416381835938" type="line"/>
      <point x="350" y="96" type="line"/>
      <point x="312" y="96" type="line"/>
      <point x="312" y="0" type="line"/>
      <point x="600" y="0" type="line"/>
      <point x="600" y="96" type="line"/>
      <point x="543" y="96" type="line"/>
      <point x="386.9530334472656" y="271.2856140136719" type="line"/>
      <point x="512.85498046875" y="424" type="line"/>
      <point x="600" y="424" type="line"/>
      <point x="600" y="520" type="line"/>
      <point x="369" y="520" type="line"/>
      <point x="369" y="424" type="line"/>
      <point x="424.8549499511719" y="424" type="line"/>
      <point x="341.2641296386719" y="322.607421875" type="line"/>
      <point x="251" y="424" type="line"/>
      <point x="311" y="424" type="line"/>
      <point x="311" y="520" type="line"/>
    </contour>
  </outline>
</glyph>
<glyph name="z" format="2">
  <advance width="532"/>
  <unicode hex="007A"/>
  <outline>
    <contour>
      <point x="24" y="520" type="line"/>
      <point x="492" y="520" type="line"/>
      <point x="492" y="441" type="line"/>
      <point x="255" y="96" type="line"/>
      <point x="508" y="96" type="line"/>
      <point x="508" y="0" type="line"/>
      <point x="24" y="0" type="line"/>
      <point x="24" y="79" type="line"/>
      <point x="275" y="424" type="line"/>
      <point x="24" y="424" type="line"/>
    </contour>
  </outline>
</glyph>
<glyph name="dotlessi" format="2">
  <advance width="364"/>
  <unicode hex="0131"/>
  <anchor x="135" y="687" name="AccentCenter"/>
  <outline>
    <contour>
      <point x="28" y="520" type="line"/>
      <point x="276" y="520" type="line"/>
      <point x="276" y="96" type="line"/>
      <point x="332" y="96" type="line"/>
      <point x="332" y="0" type="line"/>
      <point x="84" y="0" type="line"/>
      <point x="84" y="424" type="line"/>
      <point x="28" y="424" type="line"/>
    </contour>
  </outline>
</glyph>
